<svg id="Ebene_1" data-name="Ebene 1" xmlns="http://www.w3.org/2000/svg" xmlns:xlink="http://www.w3.org/1999/xlink" viewBox="0 0 360 70.77"><defs><style>.cls-1{fill:none;}.cls-2{clip-path:url(#clip-path);}.cls-3{fill:#e2001a;}.cls-3,.cls-4{fill-rule:evenodd;}</style><clipPath id="clip-path"><rect class="cls-1" y="0.01" width="360" height="70.76"/></clipPath></defs><g class="cls-2"><path class="cls-3" d="M3.55,20.26,0,26.12a13.88,13.88,0,0,0,10.27,4.25c6.78,0,11.07-4.16,11.07-10.18,0-5.34-2.83-7.24-8-8.62-2.63-.68-4.64-1.13-4.64-3.19C8.74,7,10,6,11.94,6a8.78,8.78,0,0,1,5.55,2.3L20,2.59A14.61,14.61,0,0,0,11.42,0c-6.07,0-10,4-10,9.37,0,4.52,2.55,6.63,7.76,8,3.27.85,4.85,1.54,4.85,3.84,0,1.7-1.42,3-3.6,3s-4.57-1.34-6.86-4Zm26.36,9.37h7.88V7.53h6.46V.71H23.48V7.53h6.43v22.1Zm13.11,0h7.82l1.5-5.19H63.53L65,29.61h7.85L62.84.71H53L43,29.61ZM54,18.82l2.91-9.55c.12-.44.49-1.74,1-3.88.53,2.15.85,3.44,1,3.88l2.95,9.55Zm29.35,4.33v-16h1.33c5.94,0,8.89,2.26,8.89,8s-2.87,8-8.9,8ZM75.56,29.6h8.06c4.8,0,8.81-.16,12.4-2.71s5.58-6.59,5.58-11.72S99.66,6,96,3.45C92.22.78,87.91.7,82.52.7h-7Zm33.25,0h7.88V7.53h6.46V.71H102.41V7.53h6.43V29.6ZM148.56.71h-6.35l-3.63,13.82c-.37,1.38-.73,2.83-1,4.33-.24-1.42-.52-2.87-.88-4.33L133.36.71h-8l8.18,28.9h7.31l3.52-12.32c.32-1.1.62-2.39,1-3.89.45,1.86.77,3.16,1,3.89l3.53,12.31h7.32L165.37.71h-8L154,14.45c-.24,1-.52,2.43-.88,4.24,0-.2-.25-1.65-.93-4.24Zm19.52,28.9h17.7V23.13h-10V18.24h9.45V12.06h-9.45v-5h10V.71h-17.7V29.6Zm30.31-15.23V6.77H200c3.28,0,4.77,1,4.77,4,0,2.54-1.57,3.6-4.89,3.6ZM191,29.6h7.4V18.28L205,29.6h8.9L206,18c4.21-.89,6.47-3.74,6.47-8.25a8.6,8.6,0,0,0-3.23-7.07C206.76.77,203.72.7,199.72.7H191V29.6Zm25.91,0h7.8v-13l9.41,13h9.82l-11.6-14.79L243,.71h-9.18L224.7,13.83V.71h-7.8Zm29.3,0h17.69V23.13h-10V18.24h9.46V12.06h-9.49v-5h10V.71H246.2Z"/><path class="cls-4" d="M1.52,69.64H6.2V54.91L17.62,69.64h6.05l-12.79-16L22.3,40.78H16.57L6.2,52.73V40.78H1.52ZM53.87,55.27a14.85,14.85,0,0,0-4.54-10.74,15.74,15.74,0,0,0-21.85,0,15.07,15.07,0,0,0-3.32,4.91,15.13,15.13,0,0,0,0,11.62A15,15,0,0,0,27.48,66a15.59,15.59,0,0,0,21.85,0,14.59,14.59,0,0,0,4.52-10.69Zm-4.89,0a10.74,10.74,0,0,1-3.12,7.63,10.31,10.31,0,0,1-3.4,2.33,10.39,10.39,0,0,1-8.09,0A10.21,10.21,0,0,1,31,62.9a11.05,11.05,0,0,1,0-15.29,10.37,10.37,0,0,1,7.49-3.13,10.1,10.1,0,0,1,4,.8,10.31,10.31,0,0,1,3.4,2.33A10.87,10.87,0,0,1,49,55.27Zm9.16,14.37h4.31V49.58a23.8,23.8,0,0,0,2.78,3.23l18.69,18v-30H79.6v20a35.73,35.73,0,0,0-3.12-3.51L58.14,39.65v30Zm29.75-5.77c1,4.19,4.19,6.54,9.12,6.54,6,0,9.57-3.56,9.57-8.93,0-4.16-2.39-6.24-7.5-8.55-3.22-1.5-5.48-2.35-5.48-5.13,0-2.18,1.57-3.64,4.11-3.64,1.82,0,3.12.85,4.28,2.63l3.67-1.87c-1.09-3-4-4.76-8.31-4.76-5.25,0-8.68,3.27-8.68,7.91,0,4.37,2.83,6.29,8,8.8,3,1.45,5.13,2.14,5.13,5,0,2.59-1.73,4.28-4.56,4.28s-4.89-1.37-5.57-4l-3.75,1.73Zm32.47-19.1H128v-4H108v4h7.67V69.64h4.68V44.77ZM147,69.64h5l-14-30-14,30H129l3.35-7.42h11.42L147,69.62ZM134,58.3,137,51.71a22,22,0,0,0,1-3.26,26.53,26.53,0,0,0,1.09,3.26l3,6.59Zm19.78,11.34h4.31V49.58a23.87,23.87,0,0,0,2.79,3.23l18.69,18v-30h-4.32v20a39.91,39.91,0,0,0-3.12-3.51L153.8,39.65v30Zm28.45,0h22.08v-4.2H189.6l14.6-24.66H184.71v4H197l-14.7,24.87Z"/><path class="cls-4" d="M274.14,46.05l-2.65,5.62,36,.13c6.48,0,12.18-.37,15.81-6.47,3.58-6.47,1.32-13.94-5.29-16.8,9.5.92,12.58,14.69,6.56,21.24-3.35,3.8-8.12,4.89-13.57,5.29L270,55l-2.78,6.11L313,61c19.39,0,28.25-21.62,9.17-31.66C330,30,336.82,40.69,335.48,47.7c-1.61,8.39-6.67,12.63-14.21,15a37.21,37.21,0,0,1-8.5,1.5l-9.12.17c-8.54.15-25.26-.16-37.95-.2L262.9,70l50.3.17c11.63,0,22.18-5,25.91-16.53C343.9,39,330.73,27,317,28.15c6.35,2.59,4.86,13.4-.91,16.44-4.18,2.27-8.5,1.52-12.74,1.52Z"/><path class="cls-4" d="M348.84,24.26l2.62-5.62h-36c-6.49.07-12.18.41-15.78,6.52-3.58,6.53-1.15,12.4,5.66,15.31-9.49-.41-12.95-13.16-6.95-19.77,3.33-3.82,8.12-4.92,13.56-5.34L353,15.28l2.75-6.12-45.81.23c-19.39.09-28.1,20.56-9,30.54-7.85-.55-14.75-10.12-13.44-17.13,1.58-8.35,6.63-12.63,14.16-15a36.18,36.18,0,0,1,8.51-1.53C325.81,6,341.38,6.1,357,6.1l3-5.87H309.7c-11.63,0-22.16,5.14-25.85,16.62-4.71,14.72,8.89,24.87,22.65,23.65-6.1-3-5.33-11.6.43-14.65,4.17-2.29,8.49-1.55,12.74-1.56h29.17Z"/></g></svg>